<?xml version="1.0" standalone="no"?>
<!DOCTYPE svg PUBLIC "-//W3C//DTD SVG 20010904//EN"
 "http://www.w3.org/TR/2001/REC-SVG-20010904/DTD/svg10.dtd">
<svg version="1.0" xmlns="http://www.w3.org/2000/svg"
 width="300.000000pt" height="68.000000pt" viewBox="0 0 300.000000 68.000000"
 preserveAspectRatio="xMidYMid meet">

<g transform="translate(0.000000,68.000000) scale(0.100000,-0.100000)"
fill="#1e1b4b" stroke="none">
<path d="M0 340 l0 -340 1500 0 1500 0 0 340 0 340 -1500 0 -1500 0 0 -340z
m1519 89 c39 -14 51 -35 51 -90 0 -65 -28 -89 -101 -89 -50 0 -60 3 -78 26
-39 49 -21 133 33 154 30 12 58 12 95 -1z m-1242 -21 c18 -17 23 -32 23 -69 0
-67 -29 -89 -116 -89 l-64 0 0 90 0 90 67 0 c55 0 71 -4 90 -22z m213 7 c0
-12 -14 -15 -65 -15 l-66 0 3 -57 3 -58 63 -3 c46 -2 62 -7 62 -17 0 -19 -130
-21 -148 -3 -7 7 -12 43 -12 90 l0 78 80 0 c64 0 80 -3 80 -15z m70 -75 c0
-73 -3 -90 -15 -90 -12 0 -15 17 -15 90 0 73 3 90 15 90 12 0 15 -17 15 -90z
m87 30 c14 -33 29 -60 32 -60 4 0 20 27 36 60 20 41 34 60 47 60 16 0 12 -13
-27 -90 -25 -49 -50 -90 -55 -90 -5 0 -30 41 -55 90 -41 82 -43 90 -25 90 16
0 27 -15 47 -60z m183 -30 c0 -73 -3 -90 -15 -90 -12 0 -15 17 -15 90 0 73 3
90 15 90 12 0 15 -17 15 -90z m200 75 c0 -12 -14 -15 -65 -15 -58 0 -65 -2
-65 -20 0 -17 7 -20 53 -20 63 0 90 -16 90 -55 0 -42 -26 -55 -110 -55 -57 0
-73 3 -73 15 0 11 17 15 72 17 60 2 73 6 76 21 3 14 -5 17 -52 17 -82 0 -121
46 -79 92 22 24 153 27 153 3z m308 -32 c3 -34 -1 -44 -22 -60 l-24 -18 26
-27 26 -28 -23 0 c-13 0 -39 14 -58 30 -18 17 -40 30 -48 30 -8 0 -15 7 -15
15 0 11 11 15 43 15 46 0 67 13 67 42 0 15 -9 18 -60 18 l-60 0 0 -75 c0 -60
-3 -75 -15 -75 -12 0 -15 17 -15 90 l0 91 88 -3 87 -3 3 -42z m419 25 c18 -17
23 -32 23 -69 0 -67 -29 -89 -116 -89 l-64 0 0 90 0 90 67 0 c55 0 71 -4 90
-22z m231 -25 c3 -34 -1 -44 -22 -60 l-24 -18 26 -27 26 -28 -23 0 c-13 0 -39
14 -58 30 -18 17 -40 30 -48 30 -8 0 -15 7 -15 15 0 11 11 15 43 15 46 0 67
13 67 42 0 15 -9 18 -60 18 l-60 0 0 -75 c0 -60 -3 -75 -15 -75 -12 0 -15 17
-15 90 l0 91 88 -3 87 -3 3 -42z m72 -43 c0 -73 -3 -90 -15 -90 -12 0 -15 17
-15 90 0 73 3 90 15 90 12 0 15 -17 15 -90z m220 75 c0 -11 -17 -15 -72 -17
l-73 -3 0 -55 0 -55 53 -3 c47 -3 52 -1 52 17 0 18 -6 21 -40 21 -34 0 -40 3
-40 20 0 19 5 21 58 18 l57 -3 0 -50 0 -50 -73 -3 c-46 -2 -79 2 -88 9 -18 15
-19 140 -2 157 7 7 43 12 90 12 62 0 78 -3 78 -15z m60 -44 c0 -68 10 -80 70
-88 l40 -6 0 77 c0 70 2 76 20 76 20 0 21 -5 18 -87 l-3 -88 -57 -3 c-32 -2
-67 2 -79 8 -28 15 -49 69 -49 125 0 38 3 45 20 45 18 0 20 -7 20 -59z m350
44 c0 -12 -14 -15 -65 -15 l-66 0 3 -57 3 -58 63 -3 c46 -2 62 -7 62 -17 0
-19 -130 -21 -148 -3 -7 7 -12 43 -12 90 l0 78 80 0 c64 0 80 -3 80 -15z m194
6 c3 -4 -19 -35 -49 -69 -30 -33 -55 -63 -55 -66 0 -3 25 -6 55 -6 42 0 55 -3
55 -15 0 -12 -16 -15 -85 -15 -57 0 -85 4 -85 11 0 7 25 40 56 75 l56 64 -56
0 c-43 0 -56 3 -56 15 0 12 15 15 79 15 44 0 82 -4 85 -9z m-2404 -81 c0 -17
-7 -20 -49 -20 -28 0 -53 5 -56 10 -12 20 7 30 56 30 42 0 49 -3 49 -20z
m2200 0 c0 -17 -7 -20 -49 -20 -28 0 -53 5 -56 10 -12 20 7 30 56 30 42 0 49
-3 49 -20z"/>
<path d="M1422 388 c-7 -7 -12 -28 -12 -48 0 -46 15 -60 61 -60 44 0 69 21 69
56 0 47 -17 64 -63 64 -24 0 -48 -5 -55 -12z"/>
<path d="M152 343 l3 -58 48 1 c53 0 67 12 67 56 0 39 -24 58 -76 58 l-45 0 3
-57z"/>
<path d="M1632 343 l3 -58 48 1 c53 0 67 12 67 56 0 39 -24 58 -76 58 l-45 0
3 -57z"/>
</g>
</svg>
